<svg t="1629896343020" class="icon" viewBox="0 0 1024 1024" version="1.1" xmlns="http://www.w3.org/2000/svg" p-id="857" width="64" height="64"><path d="M181.02 687.81c-51.12-51.49-79.48-119.41-79.48-191.42 0-149.63 121.27-271.28 270.53-271.28l226.5 0.75-40.67-38.81c-11.19-10.82-11.57-28.36-0.75-39.55 10.82-11.19 28.36-11.57 39.55-0.74l91.05 87.32c8.21 7.84 10.82 20.15 6.72 30.6-4.1 10.45-14.55 17.54-26.12 17.54l-296.65-0.75c-118.29 0-214.56 96.65-214.56 215.31 0 57.09 22.39 111.2 63.06 151.87 10.82 10.82 10.82 28.73 0 39.55-5.22 5.22-12.31 7.84-19.4 7.84-7.09-0.03-14.18-2.64-19.78-8.23zM408.63 858.71l-91.05-87.32c-8.21-7.84-10.82-20.15-6.72-30.6 4.1-10.45 14.55-17.54 26.12-17.54l296.66 0.75c118.29 0 214.56-96.65 214.56-215.31 0-57.09-22.39-111.2-63.06-151.87-10.82-10.82-10.82-28.73 0-39.55 10.82-10.82 28.73-10.82 39.55 0 51.12 51.49 79.48 119.41 79.48 191.42 0 149.63-121.27 271.28-270.53 271.28l-226.5-0.75 40.67 38.81c11.19 10.82 11.57 28.36 0.75 39.55-5.97 5.97-13.06 8.96-20.52 8.96-7.09 0-13.81-2.61-19.41-7.83z" fill="#A4D4FF" p-id="858"></path><path d="M623.94 642.6c72.02 0 130.6-58.96 130.6-130.6s-58.58-130.6-130.6-130.6H400.06c-72.02 0-130.6 58.96-130.6 130.6s58.58 130.6 130.6 130.6h223.88z" fill="#2B8CF7" p-id="859"></path></svg>