<svg t="1629896402026" class="icon" viewBox="0 0 1024 1024" version="1.1" xmlns="http://www.w3.org/2000/svg" p-id="1019" width="64" height="64"><path d="M875.47 732.9c-0.37-2.99-0.75-5.97-1.87-8.58-1.49-3.36-3.36-5.97-5.6-8.58 0-0.25-0.12-0.37-0.37-0.37-2.61-2.61-5.6-4.48-8.96-5.97-3.36-1.49-7.09-2.24-10.82-2.24l-174.25 0.74h-0.37c-22.39 0-44.03-10.45-57.47-28.36l-45.52-58.58c-9.33-12.31-26.87-14.55-39.18-4.85-12.31 9.7-14.55 26.87-4.85 39.18l45.52 58.58c24.25 31.34 62.31 50 101.87 50h0.37l106.35-0.37-26.49 26.49c-10.82 10.82-10.82 28.73 0 39.55 5.6 5.6 12.69 8.21 19.78 8.21s14.18-2.61 19.78-8.21l74.63-74.63c2.61-2.61 4.48-5.6 5.97-8.96 1.12-3.73 1.87-7.46 1.87-10.82-0.02-0.74-0.39-1.48-0.39-2.23zM273.94 260.49h-0.75l-97.39 0.37c-15.3 0-27.99 12.69-27.99 27.99s12.69 27.99 27.99 27.99l97.39-0.37h0.37c23.51 0 45.52 11.19 58.96 30.22l40.3 55.97c5.6 7.46 14.18 11.57 22.76 11.57 5.6 0 11.57-1.87 16.42-5.22 12.69-8.96 15.3-26.49 6.34-39.18l-39.93-55.97c-24.24-33.59-63.05-53.37-104.47-53.37z" fill="#A4D4FF" p-id="1020"></path><path d="M875.83 289.22c0-3.73-0.75-7.46-2.24-10.82-1.49-3.36-3.36-6.34-5.97-8.96l-74.63-74.63c-10.82-10.82-28.73-10.82-39.55 0-10.82 10.82-10.82 28.73 0 39.55l26.49 26.49-101.87-0.37h-0.75c-42.91 0-83.21 21.27-107.09 57.46L331.78 675.43c-13.43 20.15-36.2 32.46-60.45 32.46h-0.37l-95.15-0.37c-15.3 0-27.99 12.31-27.99 27.99 0 15.3 12.31 27.99 27.99 27.99l95.15 0.37h0.75c43.29 0 83.21-21.27 107.09-57.46l238.44-357.48c13.43-20.15 36.2-32.46 60.45-32.46h0.37l169.78 0.75c3.73 0 7.09-0.75 10.82-2.24 3.36-1.49 6.34-3.36 8.96-5.97 0-0.25 0.12-0.37 0.37-0.37 2.24-2.61 4.48-5.22 5.6-8.58 1.12-2.99 1.49-5.97 1.87-8.96-0.01-0.76 0.37-1.5 0.37-1.88z" fill="#2B8CF7" p-id="1021"></path></svg>