<svg t="1629896425065" class="icon" viewBox="0 0 1024 1024" version="1.1" xmlns="http://www.w3.org/2000/svg" p-id="1181" width="64" height="64"><path d="M165.34 226c-14.21 0-26-11.79-26-26s11.79-26 26-26h693.33c14.21 0 26 11.79 26 26s-11.79 26-26 26H165.34zM165.34 434c-14.21 0-26-11.79-26-26s11.79-26 26-26h312c14.21 0 26 11.79 26 26s-11.79 26-26 26h-312zM165.34 642c-14.21 0-26-11.79-26-26s11.79-26 26-26h208c14.21 0 26 11.79 26 26s-11.79 26-26 26h-208zM165.34 850c-14.21 0-26-11.79-26-26s11.79-26 26-26H304c14.21 0 26 11.79 26 26s-11.79 26-26 26H165.34z" fill="#A4D4FF" p-id="1182"></path><path d="M772.35 352.54l-150.8 40.91c-40.56 11.09-65.52 44.03-65.52 85.62v215.97c-14.56-8.32-31.55-13.52-49.57-13.52-55.81 0-101.57 45.41-101.57 101.57 0 55.81 45.41 101.57 101.57 101.57s101.57-45.41 101.57-101.57V587.23l224.64-61.36v118.91c-14.56-8.32-31.55-13.52-49.57-13.52-55.81 0-101.57 45.41-101.57 101.57 0 55.81 45.41 101.57 101.57 101.57s101.57-45.41 101.57-101.57V438.17c0-35.01-10.4-60.67-30.85-75.92-20.46-15.6-48.54-18.72-81.47-9.71zM456.89 783.1c0-27.39 22.19-49.57 49.57-49.57s49.57 22.19 49.57 49.57c0 27.39-22.19 49.57-49.57 49.57s-49.57-22.19-49.57-49.57z m276.63-50.27c0-27.39 22.19-49.57 49.57-49.57s49.57 22.19 49.57 49.57c0 27.39-22.19 49.57-49.57 49.57s-49.57-22.18-49.57-49.57z" fill="#2B8CF7" p-id="1183"></path></svg>