<svg t="1629724123669" class="icon" viewBox="0 0 1028 1024" version="1.1" xmlns="http://www.w3.org/2000/svg" p-id="831" width="48" height="48"><path d="M367.93297 500.597852H132.648754A132.648754 132.648754 0 0 1 0 367.99748V132.648754A132.632627 132.632627 0 0 1 132.648754 0h235.284216a132.648754 132.648754 0 0 1 132.664882 132.648754v235.348726a132.664882 132.664882 0 0 1-132.664882 132.600372z m-173.467477-169.338835h111.650738a25.207295 25.207295 0 0 0 25.207296-25.223423v-111.553974a25.207295 25.207295 0 0 0-25.207296-25.223422h-111.650738a25.207295 25.207295 0 0 0-25.207295 25.223422v111.634611a25.207295 25.207295 0 0 0 25.207295 25.223423z" fill="#004C9A" p-id="832"></path><path d="M896.157243 500.597852H660.840772a132.664882 132.664882 0 0 1-132.648754-132.600372V132.648754A132.648754 132.648754 0 0 1 660.840772 0h235.316471a132.648754 132.648754 0 0 1 132.648754 132.648754v235.348726a132.664882 132.664882 0 0 1-132.648754 132.600372z m-173.467477-169.338835h111.634611a25.223423 25.223423 0 0 0 25.223423-25.223423v-111.553974a25.223423 25.223423 0 0 0-25.223423-25.223422H722.673638a25.223423 25.223423 0 0 0-25.223422 25.223422v111.634611a25.223423 25.223423 0 0 0 25.223422 25.223423z" fill="#FF6F95" p-id="833"></path><path d="M367.93297 1024H132.648754A132.648754 132.648754 0 0 1 0 891.335118V656.050902a132.632627 132.632627 0 0 1 132.648754-132.648754h235.284216a132.648754 132.648754 0 0 1 132.664882 132.648754v235.284216a132.664882 132.664882 0 0 1-132.664882 132.664882z m-173.467477-169.338835h111.650738a25.207295 25.207295 0 0 0 25.207296-25.207295v-111.586229a25.207295 25.207295 0 0 0-25.207296-25.207295h-111.650738a25.207295 25.207295 0 0 0-25.207295 25.207295v111.650739a25.207295 25.207295 0 0 0 25.207295 25.207295zM896.157243 1024H660.840772a132.664882 132.664882 0 0 1-132.648754-132.664882V656.050902a132.648754 132.648754 0 0 1 132.648754-132.648754h235.316471a132.648754 132.648754 0 0 1 132.648754 132.648754v235.284216a132.664882 132.664882 0 0 1-132.648754 132.664882z m-173.467477-169.338835h111.634611a25.207295 25.207295 0 0 0 25.223423-25.207295v-111.586229a25.207295 25.207295 0 0 0-25.223423-25.207295H722.673638a25.207295 25.207295 0 0 0-25.223422 25.207295v111.650739a25.207295 25.207295 0 0 0 25.223422 25.207295z" fill="#004C9A" p-id="834"></path></svg>