<svg t="1629818163822" class="icon" viewBox="0 0 1024 1024" version="1.1" xmlns="http://www.w3.org/2000/svg" p-id="1088" width="64" height="64"><path d="M512 1024a512 512 0 1 1 512-512 512.558545 512.558545 0 0 1-512 512z m0-930.909091a418.909091 418.909091 0 1 0 418.909091 418.909091 419.374545 419.374545 0 0 0-418.909091-418.909091z" fill="#2B2E6A" p-id="1089"></path><path d="M698.181818 744.727273H325.818182a46.545455 46.545455 0 0 1-46.545455-46.545455V325.818182a46.545455 46.545455 0 0 1 46.545455-46.545455h372.363636a46.545455 46.545455 0 0 1 46.545455 46.545455v372.363636a46.545455 46.545455 0 0 1-46.545455 46.545455z m-325.818182-93.090909h279.272728V372.363636H372.363636z" fill="#9852FE" p-id="1090"></path></svg>